<?xml version="1.0" encoding="UTF-8"?>
<svg id="Layer_1" data-name="Layer 1" xmlns="http://www.w3.org/2000/svg" viewBox="0 0 345 244">
  <defs>
    <style>
      .cls-1 {
        fill: #fff;
      }

      .cls-2 {
        fill: #bc4a45;
      }

      .cls-3 {
        fill: #333;
      }

      .cls-4, .cls-5 {
        fill: #c6c6c5;
      }

      .cls-6 {
        fill: #20435e;
      }

      .cls-7 {
        fill: #548aba;
      }

      .cls-8 {
        fill: #519961;
      }

      .cls-5, .cls-9 {
        stroke-linecap: round;
        stroke-linejoin: round;
      }

      .cls-5, .cls-9, .cls-10 {
        stroke: #3c3c3b;
        stroke-width: .5px;
      }

      .cls-9, .cls-10 {
        fill: none;
      }

      .cls-10 {
        stroke-miterlimit: 10;
      }
    </style>
  </defs>
  <rect class="cls-6" width="345" height="244" rx="51.21" ry="51.21"/>
  <g>
    <path class="cls-4" d="M258.77,104.78c-14.64-13.96-45.86-26.28-45.86-26.28,0,0,12.27,31.83,26.03,46.7,13.76,14.87,34.15,28.36,34.15,28.36l13.66-14.07s-13.34-20.75-27.98-34.71Z"/>
    <path class="cls-9" d="M258.77,104.78c-14.64-13.96-45.86-26.28-45.86-26.28,0,0,12.27,31.83,26.03,46.7,13.76,14.87,34.15,28.36,34.15,28.36l13.66-14.07s-13.34-20.75-27.98-34.71Z"/>
  </g>
  <g>
    <path class="cls-7" d="M236.76,103.43l14.84,52.37s-23.9-23.01-14.84-52.37Z"/>
    <path class="cls-9" d="M236.76,103.43l14.84,52.37s-23.9-23.01-14.84-52.37Z"/>
  </g>
  <g>
    <g>
      <path class="cls-1" d="M233.63,111.81c3.35,1.28,7.27,.54,9.95-2.22,2.63-2.71,3.34-6.61,2.17-9.98l-8.81,3.64-3.31,8.56Z"/>
      <path class="cls-10" d="M233.63,111.81c3.35,1.28,7.27,.54,9.95-2.22,2.63-2.71,3.34-6.61,2.17-9.98l-8.81,3.64-3.31,8.56Z"/>
    </g>
    <g>
      <path class="cls-8" d="M230.25,96.06c-.07,.07-.12,.14-.18,.21l6.88,6.98,8.81-3.64c-.46-1.31-1.19-2.55-2.22-3.6-3.68-3.74-9.63-3.71-13.28,.05Z"/>
      <path class="cls-10" d="M230.25,96.06c-.07,.07-.12,.14-.18,.21l6.88,6.98,8.81-3.64c-.46-1.31-1.19-2.55-2.22-3.6-3.68-3.74-9.63-3.71-13.28,.05Z"/>
    </g>
    <g>
      <path class="cls-2" d="M230.07,96.27c-3.46,3.78-3.38,9.7,.23,13.37,.98,.99,2.12,1.71,3.33,2.17l3.31-8.56-6.88-6.98Z"/>
      <path class="cls-10" d="M230.07,96.27c-3.46,3.78-3.38,9.7,.23,13.37,.98,.99,2.12,1.71,3.33,2.17l3.31-8.56-6.88-6.98Z"/>
    </g>
  </g>
  <g>
    <g>
      <path class="cls-4" d="M91.07,178.2c12.89-15.66,23.34-48.17,23.34-48.17,0,0-30.47,14.15-44.29,28.96-13.82,14.81-25.96,36.31-25.96,36.31l14.43,13.23s19.59-14.68,32.48-30.34Z"/>
      <path class="cls-9" d="M91.07,178.2c12.89-15.66,23.34-48.17,23.34-48.17,0,0-30.47,14.15-44.29,28.96-13.82,14.81-25.96,36.31-25.96,36.31l14.43,13.23s19.59-14.68,32.48-30.34Z"/>
    </g>
    <g>
      <path class="cls-7" d="M91.73,155.31l-12.22,53.07s22.73-24.22,12.22-53.07Z"/>
      <path class="cls-9" d="M91.73,155.31l-12.22,53.07s22.73-24.22,12.22-53.07Z"/>
    </g>
    <g>
      <g>
        <path class="cls-1" d="M83.38,152.53c-1.08,3.49-.16,7.45,2.68,10.05,2.78,2.55,6.63,3.08,9.86,1.71l-4-8.81-8.53-2.95Z"/>
        <path class="cls-10" d="M83.38,152.53c-1.08,3.49-.16,7.45,2.68,10.05,2.78,2.55,6.63,3.08,9.86,1.71l-4-8.81-8.53-2.95Z"/>
      </g>
      <g>
        <path class="cls-8" d="M98.6,148.28c-.07-.06-.14-.12-.21-.18l-6.47,7.38,4,8.81c1.26-.53,2.43-1.34,3.4-2.45,3.46-3.95,3.14-10.02-.72-13.56Z"/>
        <path class="cls-10" d="M98.6,148.28c-.07-.06-.14-.12-.21-.18l-6.47,7.38,4,8.81c1.26-.53,2.43-1.34,3.4-2.45,3.46-3.95,3.14-10.02-.72-13.56Z"/>
      </g>
      <g>
        <path class="cls-2" d="M98.38,148.1c-3.86-3.34-9.65-2.96-13.05,.92-.92,1.05-1.56,2.25-1.95,3.51l8.53,2.95,6.47-7.38Z"/>
        <path class="cls-10" d="M98.38,148.1c-3.86-3.34-9.65-2.96-13.05,.92-.92,1.05-1.56,2.25-1.95,3.51l8.53,2.95,6.47-7.38Z"/>
      </g>
    </g>
  </g>
  <polygon class="cls-5" points="192.65 33.88 192.65 20.96 152.93 20.96 152.93 33.88 144.21 33.88 172.79 57.85 201.38 33.88 192.65 33.88"/>
  <g>
    <path class="cls-3" d="M164.96,28.71l1.96,5.79,.53-6.51h1.69l-.93,8.63h-2.11l-1.92-5.84-1.88,5.84h-2.11l-.92-8.63h1.67l.54,6.53,1.93-5.8h1.55Z"/>
    <path class="cls-3" d="M170.14,27.06h1.82v1.91h-1.82v-1.91Zm1.82,9.56h-1.82v-6.63h1.82v6.63Z"/>
    <path class="cls-3" d="M173.24,30.61c.57-.26,1.96-.76,3.32-.76s2.54,.38,2.54,2.31v4.46h-1.76v-4.3c0-.88-.47-1.12-1.06-1.12-.43,0-.96,.09-1.29,.28v5.14h-1.76v-6.01Z"/>
    <path class="cls-3" d="M184.52,36.08c-.61,.58-1.26,.72-1.78,.72-1.64,0-2.58-1.37-2.58-3.37,0-1.85,.72-3.54,3.02-3.54,.35,0,.78,.04,1.19,.21v-2.53h1.77v7.64c.01,.5,.08,.96,.23,1.49h-1.66l-.19-.61Zm-.15-4.68c-.34-.16-.66-.17-.91-.17-1.09,0-1.5,.81-1.5,2.21s.48,1.96,1.33,1.96c.32,0,.63-.01,1.09-.31v-3.7Z"/>
  </g>
  <path class="cls-3" d="M64.54,194.7l-.66-2.04h-2.78l-.63,2.04h-1.91l2.93-8.63h2.06l2.83,8.63h-1.84Zm-2.03-6.85l-.97,3.4h1.92l-.95-3.4Z"/>
  <path class="cls-3" d="M264.31,130.28c.71-.1,1.55-.21,2.36-.21,1.66,0,3.17,.44,3.17,2.24,0,.61-.19,1.4-.95,1.74,1.17,.36,1.54,1.22,1.54,2.09,0,1.41-.63,2.71-3.65,2.71-.7,0-1.52-.06-2.48-.21v-8.37Zm1.79,3.3h.64c.62,0,1.31-.17,1.31-1.12,0-.67-.43-1-1.26-1-.2,0-.44,.03-.7,.06v2.05Zm.06,3.72c.18,.03,.49,.05,.85,.05,.73,0,1.62-.17,1.62-1.25,0-.85-.49-1.24-1.68-1.24h-.78v2.44Z"/>
</svg>