<?xml version="1.0" encoding="UTF-8"?>
<svg id="Layer_1" data-name="Layer 1" xmlns="http://www.w3.org/2000/svg" viewBox="0 0 345 244">
  <defs>
    <style>
      .cls-1 {
        fill: #333;
      }

      .cls-2 {
        fill: #20435e;
      }

      .cls-3 {
        fill: #fff;
      }

      .cls-3, .cls-4, .cls-5, .cls-6, .cls-7 {
        stroke-width: .5px;
      }

      .cls-3, .cls-4, .cls-5, .cls-6, .cls-7, .cls-8 {
        stroke: #3c3c3b;
      }

      .cls-3, .cls-6, .cls-7, .cls-8 {
        stroke-miterlimit: 10;
      }

      .cls-4 {
        fill: #c6c6c5;
      }

      .cls-4, .cls-5 {
        stroke-linecap: round;
        stroke-linejoin: round;
      }

      .cls-5 {
        fill: #548aba;
      }

      .cls-6 {
        fill: #bc4a45;
      }

      .cls-7 {
        fill: #519961;
      }

      .cls-8 {
        fill: none;
      }
    </style>
  </defs>
  <rect class="cls-2" width="345" height="244" rx="51.21" ry="51.21"/>
  <polygon class="cls-4" points="192.87 33.07 192.87 20.36 152.93 20.36 152.93 33.07 144.15 33.07 172.9 56.64 201.65 33.07 192.87 33.07"/>
  <g>
    <path class="cls-1" d="M165.03,27.99l1.97,5.69,.53-6.41h1.7l-.94,8.49h-2.12l-1.93-5.75-1.89,5.75h-2.12l-.93-8.49h1.68l.55,6.42,1.95-5.71h1.56Z"/>
    <path class="cls-1" d="M170.24,26.36h1.83v1.88h-1.83v-1.88Zm1.83,9.41h-1.83v-6.52h1.83v6.52Z"/>
    <path class="cls-1" d="M173.35,29.86c.57-.25,1.97-.75,3.34-.75s2.55,.37,2.55,2.27v4.39h-1.77v-4.23c0-.86-.47-1.11-1.07-1.11-.43,0-.97,.09-1.3,.28v5.06h-1.77v-5.91Z"/>
    <path class="cls-1" d="M184.7,35.23c-.61,.57-1.27,.71-1.79,.71-1.65,0-2.59-1.35-2.59-3.32,0-1.82,.72-3.48,3.04-3.48,.36,0,.79,.04,1.2,.2v-2.49h1.78v7.51c.01,.5,.08,.94,.23,1.46h-1.67l-.19-.6Zm-.15-4.6c-.34-.15-.66-.17-.92-.17-1.09,0-1.51,.8-1.51,2.17s.48,1.93,1.33,1.93c.32,0,.64-.01,1.09-.31v-3.64Z"/>
  </g>
  <path class="cls-4" d="M325.62,74.7c-1.49,6-13.62,25.74-38.04,37.8-24.42,12.06-52.09,12.61-52.09,12.61l-4.89-12.15-4.89-12.15s20.32-18.78,46.29-27.01c25.97-8.23,48.39-2.4,53.62,.9Z"/>
  <path class="cls-5" d="M221.23,116.74c2.86,7.82,9.11,4.51,9.11,4.51l-2.83-7.03-2.83-7.03s-6.8,1.95-3.44,9.56Z"/>
  <line class="cls-8" x1="298.15" y1="75.94" x2="298.15" y2="75.94"/>
  <g>
    <path class="cls-3" d="M256.14,88.22c-3.97,4.15-5.39,10.38-3.11,16.06,2.24,5.56,7.41,9.04,13.02,9.4l.34-15.26-10.25-10.2Z"/>
    <path class="cls-7" d="M319.29,86.98c-.06-.14-.13-.27-.19-.4l-14.43,5.81-.34,15.26c2.19,.14,4.43-.17,6.6-1.05,7.73-3.11,11.47-11.89,8.36-19.62Z"/>
    <path class="cls-6" d="M312.73,70.76c-3.25-7.44-11.85-11.01-19.43-7.95-2.05,.83-3.81,2.06-5.25,3.56l10.25,10.2,14.43-5.81Z"/>
    <path class="cls-3" d="M294.69,87.64c-.06-.14-.13-.27-.19-.4-3.25-7.44-11.85-11.01-19.43-7.95-2.05,.83-3.81,2.06-5.25,3.56l10.25,10.2-.34,15.26c2.19,.14,4.43-.17,6.6-1.05,7.73-3.11,11.47-11.89,8.36-19.62Z"/>
  </g>
  <path class="cls-4" d="M78.81,186.24c19.81-7.88,45.61-32.44,45.61-32.44,0,0-35.55-2.36-55.81,4.27-20.26,6.62-42.24,20.24-42.24,20.24l7.02,19.41s25.6-3.6,45.41-11.48Z"/>
  <g>
    <path class="cls-3" d="M84.42,159.27c-2.73,2.66-3.82,6.75-2.44,10.57,1.35,3.74,4.7,6.16,8.41,6.54l.58-10.1-6.55-7Z"/>
    <path class="cls-7" d="M100.79,163.04c-.03-.09-.08-.18-.11-.27l-9.7,3.51-.58,10.1c1.44,.15,2.94-.01,4.4-.54,5.19-1.88,7.88-7.61,6-12.8Z"/>
    <path class="cls-6" d="M100.67,162.76c-1.98-5.01-7.59-7.57-12.69-5.73-1.38,.5-2.57,1.28-3.56,2.24l6.55,7,9.7-3.51Z"/>
  </g>
  <path class="cls-5" d="M45.54,200.31l45.43-34.03s-13.42,32.26-45.43,34.03Z"/>
  <path class="cls-1" d="M48.17,187.18l-.66-2.01h-2.8l-.64,2.01h-1.92l2.95-8.49h2.07l2.85,8.49h-1.86Zm-2.05-6.74l-.98,3.34h1.93l-.95-3.34Z"/>
  <path class="cls-1" d="M242.19,105.44c.71-.1,1.56-.2,2.38-.2,1.67,0,3.19,.43,3.19,2.2,0,.6-.19,1.37-.95,1.72,1.18,.36,1.55,1.2,1.55,2.06,0,1.38-.64,2.67-3.67,2.67-.7,0-1.53-.06-2.49-.2v-8.24Zm1.8,3.24h.65c.62,0,1.32-.17,1.32-1.11,0-.66-.43-.98-1.27-.98-.2,0-.44,.03-.7,.06v2.02Zm.06,3.66c.18,.03,.5,.05,.85,.05,.74,0,1.63-.17,1.63-1.23,0-.84-.5-1.22-1.69-1.22h-.79v2.4Z"/>
</svg>